<?xml version="1.0" encoding="iso-8859-1"?>
<!-- Uploaded to: SVG Repo, www.svgrepo.com, Generator: SVG Repo Mixer Tools -->
<svg fill="#000000" version="1.1" id="Layer_1" xmlns="http://www.w3.org/2000/svg" xmlns:xlink="http://www.w3.org/1999/xlink" 
	 viewBox="0 0 512 512" xml:space="preserve">
<g>
	<g>
		<path d="M0,31.983v55.685h512V31.983H0z M496.343,72.011H15.657V47.64h480.686V72.011z"/>
	</g>
</g>
<g>
	<g>
		<path d="M495.91,112.599V96.942H15.761v15.657h7.307v289.133h-7.307v15.657h230.68v30.27h15.657v-30.27H495.91v-15.657h-8.35
			V112.599H495.91z M471.902,401.732H38.725V112.599h433.177V401.732z"/>
	</g>
</g>
<g>
	<g>
		<polygon points="262.098,464.36 262.098,456.009 246.441,456.009 246.441,464.36 231.828,464.36 231.828,480.017 276.712,480.017 
			276.712,464.36 		"/>
	</g>
</g>
<g>
	<g>
		<rect x="255.836" y="152.259" width="63.672" height="15.657"/>
	</g>
</g>
<g>
	<g>
		<rect x="255.836" y="177.31" width="31.314" height="15.657"/>
	</g>
</g>
<g>
	<g>
		<rect x="255.836" y="201.318" width="15.657" height="15.657"/>
	</g>
</g>
<g>
	<g>
		<rect x="64.82" y="168.96" width="15.657" height="15.657"/>
	</g>
</g>
<g>
	<g>
		<rect x="96.134" y="168.96" width="96.03" height="15.657"/>
	</g>
</g>
<g>
	<g>
		<rect x="64.82" y="201.318" width="15.657" height="15.657"/>
	</g>
</g>
<g>
	<g>
		<rect x="96.134" y="201.318" width="96.03" height="15.657"/>
	</g>
</g>
<g>
	<g>
		<rect x="64.82" y="232.632" width="15.657" height="15.657"/>
	</g>
</g>
<g>
	<g>
		<rect x="96.134" y="232.632" width="96.03" height="15.657"/>
	</g>
</g>
<g>
	<g>
		<rect x="64.82" y="266.034" width="15.657" height="15.657"/>
	</g>
</g>
<g>
	<g>
		<rect x="96.134" y="266.034" width="96.03" height="15.657"/>
	</g>
</g>
<g>
	<g>
		<rect x="64.82" y="297.348" width="15.657" height="15.657"/>
	</g>
</g>
<g>
	<g>
		<rect x="96.134" y="297.348" width="96.03" height="15.657"/>
	</g>
</g>
<g>
	<g>
		<rect x="64.82" y="329.705" width="15.657" height="15.657"/>
	</g>
</g>
<g>
	<g>
		<rect x="96.134" y="329.705" width="96.03" height="15.657"/>
	</g>
</g>
<g>
	<g>
		<path d="M439.545,345.367V148.955l-61.502,61.711l-16.984-34.375l-50.293,75.399l-16.315-16.266l-55.316,89.742V151.22h-15.657
			v209.804h224.417v-15.657H439.545z M297.402,260.475l15.809,15.762l45.823-68.697l14.658,29.67l50.194-50.365v34.16h0.001
			l-48.382,55.5l-15.43-15.595l-41.095,41.111l-23.717-15.699l-29.99,26.276L297.402,260.475z M423.889,287.958h-0.001v57.409
			H251.631l44.959-39.39l24.419,16.162l39.011-39.026l16.212,16.387l47.657-54.668V287.958z"/>
	</g>
</g>
</svg>