<?xml version="1.0" ?>
<!-- Uploaded to: SVG Repo, www.svgrepo.com, Generator: SVG Repo Mixer Tools -->
<svg width="800px" height="800px" viewBox="0 0 64 64" version="1.1" xml:space="preserve" xmlns="http://www.w3.org/2000/svg" xmlns:xlink="http://www.w3.org/1999/xlink">
<style type="text/css">
	.st0{fill:none;stroke:#EDEDED;stroke-width:0.25;stroke-miterlimit:10;}
	.st1{fill:none;stroke:#BDBDBD;stroke-width:0.25;stroke-miterlimit:10;}
	.st2{fill:none;stroke:#000000;stroke-width:2;stroke-miterlimit:10;}
	.st3{fill:#35C6F4;}
	.st4{fill:#EA386E;}
	.st5{fill:#7065AD;}
	.st6{fill:#FDBE57;}
	.st7{fill:#7BC89C;}
	.st8{fill:#FDD304;}
	.st9{fill:#27255F;}
	.st10{fill:#00AEEF;}
</style>
<g id="Layer_1"/>
<g id="Layer_2">
<g>
<path d="M47,19.1v-7h-7V4.9h-1H10v40h7l0,7.3h7l0,7h30v-40H47z M12,6.9l26,0v36H12V6.9z M19,44.9h21V14.1h5v6v30H25h-6L19,44.9z     M52,57.1H26l0-5h21v-31h5V57.1z"/>
<rect height="2" width="21" x="14.5" y="11.9"/>
<rect height="2" width="21" x="14.5" y="15.4"/>
<rect height="2" width="21" x="14.5" y="18.9"/>
<rect height="2" width="21" x="14.5" y="22.4"/>
<rect height="2" width="7.8" x="14.5" y="25.9"/>
<rect height="2" width="4.5" x="14.5" y="36.4"/>
</g>
</g>
</svg>