<?xml version="1.0" encoding="UTF-8"?>
<svg width="700" height="700" version="1.1" viewBox="0 0 700 700" xmlns="http://www.w3.org/2000/svg" xmlns:xlink="http://www.w3.org/1999/xlink">
 <defs>
  <symbol id="m" overflow="visible">
   <path d="m29.312-1.75c-1.5117 0.78125-3.0898 1.3711-4.7344 1.7656-1.6367 0.40625-3.3398 0.60938-5.1094 0.60938-5.3125 0-9.5273-1.4844-12.641-4.4531-3.1055-2.9688-4.6562-7-4.6562-12.094s1.5508-9.125 4.6562-12.094c3.1133-2.9688 7.3281-4.4531 12.641-4.4531 1.7695 0 3.4727 0.19922 5.1094 0.59375 1.6445 0.39844 3.2227 0.99219 4.7344 1.7812v6.5938c-1.5312-1.0391-3.0391-1.8008-4.5156-2.2812-1.4805-0.48828-3.0391-0.73438-4.6719-0.73438-2.9375 0-5.2461 0.94531-6.9219 2.8281-1.6797 1.875-2.5156 4.4648-2.5156 7.7656 0 3.293 0.83594 5.8828 2.5156 7.7656 1.6758 1.875 3.9844 2.8125 6.9219 2.8125 1.6328 0 3.1914-0.23828 4.6719-0.71875 1.4766-0.48828 2.9844-1.2539 4.5156-2.2969z"/>
  </symbol>
  <symbol id="h" overflow="visible">
   <path d="m21.453-17.406c-0.67969-0.3125-1.3516-0.53906-2.0156-0.6875-0.65625-0.15625-1.3203-0.23438-1.9844-0.23438-1.9688 0-3.4844 0.63281-4.5469 1.8906-1.0547 1.2617-1.5781 3.0703-1.5781 5.4219v11.016h-7.6562v-23.922h7.6562v3.9219c0.97656-1.5625 2.1016-2.7031 3.375-3.4219 1.2812-0.71875 2.8125-1.0781 4.5938-1.0781 0.25 0 0.52344 0.011719 0.82812 0.03125 0.30078 0.023438 0.73438 0.070312 1.2969 0.14062z"/>
  </symbol>
  <symbol id="b" overflow="visible">
   <path d="m27.562-12.031v2.1875h-17.891c0.1875 1.793 0.83203 3.1367 1.9375 4.0312 1.1133 0.89844 2.6719 1.3438 4.6719 1.3438 1.6016 0 3.25-0.23438 4.9375-0.70312 1.6875-0.47656 3.4219-1.2031 5.2031-2.1719v5.8906c-1.8047 0.6875-3.6094 1.2031-5.4219 1.5469-1.8125 0.35156-3.6211 0.53125-5.4219 0.53125-4.3359 0-7.7031-1.0977-10.109-3.2969-2.3984-2.207-3.5938-5.2969-3.5938-9.2656 0-3.9062 1.1758-6.9727 3.5312-9.2031 2.3633-2.2383 5.6094-3.3594 9.7344-3.3594 3.7578 0 6.7695 1.1367 9.0312 3.4062 2.2578 2.2617 3.3906 5.2812 3.3906 9.0625zm-7.8594-2.5312c0-1.457-0.42969-2.6289-1.2812-3.5156-0.84375-0.89453-1.9492-1.3438-3.3125-1.3438-1.4922 0-2.6992 0.41797-3.625 1.25-0.91797 0.83594-1.4922 2.0391-1.7188 3.6094z"/>
  </symbol>
  <symbol id="a" overflow="visible">
   <path d="m14.391-10.766c-1.5938 0-2.793 0.27344-3.5938 0.8125-0.80469 0.54297-1.2031 1.3398-1.2031 2.3906 0 0.96875 0.32031 1.7305 0.96875 2.2812 0.64453 0.54297 1.5469 0.8125 2.7031 0.8125 1.4375 0 2.6445-0.51562 3.625-1.5469 0.98828-1.0312 1.4844-2.3203 1.4844-3.875v-0.875zm11.688-2.8906v13.656h-7.7031v-3.5469c-1.0312 1.4492-2.1875 2.5078-3.4688 3.1719s-2.8398 1-4.6719 1c-2.4805 0-4.4961-0.72266-6.0469-2.1719-1.543-1.4453-2.3125-3.3203-2.3125-5.625 0-2.8125 0.96094-4.8672 2.8906-6.1719 1.9375-1.3125 4.9688-1.9688 9.0938-1.9688h4.5156v-0.60938c0-1.207-0.48047-2.0938-1.4375-2.6562-0.94922-0.5625-2.4375-0.84375-4.4688-0.84375-1.6367 0-3.1562 0.16797-4.5625 0.5-1.4062 0.32422-2.7188 0.8125-3.9375 1.4688v-5.8281c1.6445-0.40625 3.2891-0.70703 4.9375-0.90625 1.6562-0.20703 3.3047-0.3125 4.9531-0.3125 4.3203 0 7.4375 0.85547 9.3438 2.5625 1.9141 1.6992 2.875 4.4609 2.875 8.2812z"/>
  </symbol>
  <symbol id="c" overflow="visible">
   <path d="m12.031-30.719v6.7969h7.875v5.4688h-7.875v10.141c0 1.1172 0.21875 1.8711 0.65625 2.2656 0.4375 0.38672 1.3125 0.57812 2.625 0.57812h3.9375v5.4688h-6.5625c-3.0234 0-5.1641-0.62891-6.4219-1.8906-1.2617-1.2578-1.8906-3.3984-1.8906-6.4219v-10.141h-3.7969v-5.4688h3.7969v-6.7969z"/>
  </symbol>
  <symbol id="g" overflow="visible">
   <path d="m19.953-20.422v-12.812h7.6875v33.234h-7.6875v-3.4531c-1.0547 1.4062-2.2148 2.4375-3.4844 3.0938-1.2734 0.65625-2.7422 0.98438-4.4062 0.98438-2.9492 0-5.3711-1.1719-7.2656-3.5156-1.8867-2.3438-2.8281-5.3594-2.8281-9.0469s0.94141-6.7031 2.8281-9.0469c1.8945-2.3438 4.3164-3.5156 7.2656-3.5156 1.6562 0 3.1172 0.33594 4.3906 1 1.2812 0.65625 2.4453 1.6836 3.5 3.0781zm-5.0469 15.484c1.6445 0 2.8945-0.59766 3.75-1.7969 0.86328-1.1953 1.2969-2.9297 1.2969-5.2031 0-2.2812-0.43359-4.0195-1.2969-5.2188-0.85547-1.1953-2.1055-1.7969-3.75-1.7969-1.625 0-2.8711 0.60156-3.7344 1.7969-0.85547 1.1992-1.2812 2.9375-1.2812 5.2188 0 2.2734 0.42578 4.0078 1.2812 5.2031 0.86328 1.1992 2.1094 1.7969 3.7344 1.7969z"/>
  </symbol>
  <symbol id="f" overflow="visible">
   <path d="m16.406-4.9375c1.6328 0 2.8828-0.59766 3.75-1.7969 0.86328-1.1953 1.2969-2.9297 1.2969-5.2031 0-2.2812-0.43359-4.0195-1.2969-5.2188-0.86719-1.1953-2.1172-1.7969-3.75-1.7969-1.6367 0-2.8906 0.60547-3.7656 1.8125-0.875 1.1992-1.3125 2.9336-1.3125 5.2031 0 2.2617 0.4375 3.9961 1.3125 5.2031 0.875 1.1992 2.1289 1.7969 3.7656 1.7969zm-5.0781-15.484c1.0508-1.3945 2.2188-2.4219 3.5-3.0781 1.2812-0.66406 2.7539-1 4.4219-1 2.9453 0 5.3672 1.1719 7.2656 3.5156 1.8945 2.3438 2.8438 5.3594 2.8438 9.0469s-0.94922 6.7031-2.8438 9.0469c-1.8984 2.3438-4.3203 3.5156-7.2656 3.5156-1.668 0-3.1406-0.33594-4.4219-1s-2.4492-1.6914-3.5-3.0781v3.4531h-7.6562v-33.234h7.6562z"/>
  </symbol>
  <symbol id="e" overflow="visible">
   <path d="m0.53125-23.922h7.6562l6.4219 16.234 5.4688-16.234h7.6562l-10.062 26.188c-1.0117 2.6641-2.1953 4.5234-3.5469 5.5781-1.3438 1.0625-3.1211 1.5938-5.3281 1.5938h-4.4219v-5.0156h2.3906c1.3008 0 2.2422-0.21094 2.8281-0.625 0.59375-0.40625 1.0547-1.1484 1.3906-2.2188l0.20312-0.65625z"/>
  </symbol>
  <symbol id="d" overflow="visible">
   <path d="m0.21875-31.891h8.2656l8.4531 23.531 8.4375-23.531h8.2656l-11.812 31.891h-9.7969z"/>
  </symbol>
  <symbol id="l" overflow="visible">
   <path d="m3.6719-23.922h7.6562v23.922h-7.6562zm0-9.3125h7.6562v6.2344h-7.6562z"/>
  </symbol>
  <symbol id="k" overflow="visible">
   <path d="m22.359-23.172v5.7969c-1.6367-0.67578-3.2148-1.1875-4.7344-1.5312-1.5234-0.34375-2.9609-0.51562-4.3125-0.51562-1.4609 0-2.543 0.18359-3.25 0.54688-0.69922 0.36719-1.0469 0.92188-1.0469 1.6719 0 0.61719 0.26562 1.0898 0.79688 1.4219 0.53125 0.32422 1.4883 0.5625 2.875 0.71875l1.3438 0.1875c3.9141 0.5 6.5508 1.3242 7.9062 2.4688 1.3516 1.1367 2.0312 2.9219 2.0312 5.3594 0 2.5547-0.94531 4.4688-2.8281 5.75-1.875 1.2812-4.6797 1.9219-8.4062 1.9219-1.5859 0-3.2188-0.125-4.9062-0.375s-3.4219-0.625-5.2031-1.125v-5.8125c1.5195 0.74219 3.082 1.2969 4.6875 1.6719 1.6016 0.36719 3.2344 0.54688 4.8906 0.54688 1.4883 0 2.6094-0.20312 3.3594-0.60938 0.75781-0.41406 1.1406-1.0312 1.1406-1.8438 0-0.6875-0.26172-1.1953-0.78125-1.5312-0.52344-0.33203-1.5586-0.59375-3.1094-0.78125l-1.3438-0.17188c-3.4062-0.42578-5.793-1.2109-7.1562-2.3594-1.3672-1.1562-2.0469-2.9102-2.0469-5.2656 0-2.5312 0.86719-4.4062 2.6094-5.625 1.7383-1.2266 4.3984-1.8438 7.9844-1.8438 1.4062 0 2.8828 0.10938 4.4375 0.32812 1.5508 0.21094 3.2383 0.54297 5.0625 1z"/>
  </symbol>
  <symbol id="j" overflow="visible">
   <path d="m3.4219-9.3125v-14.609h7.6875v2.3906c0 1.293-0.011719 2.918-0.03125 4.875-0.011719 1.9609-0.015625 3.2656-0.015625 3.9219 0 1.9297 0.046875 3.3125 0.14062 4.1562 0.10156 0.84375 0.28125 1.4609 0.53125 1.8438 0.3125 0.5 0.71875 0.88672 1.2188 1.1562 0.50781 0.27344 1.0938 0.40625 1.75 0.40625 1.5938 0 2.8438-0.60938 3.75-1.8281 0.91406-1.2266 1.375-2.9297 1.375-5.1094v-11.812h7.6406v23.922h-7.6406v-3.4531c-1.1562 1.3867-2.3828 2.4141-3.6719 3.0781-1.2812 0.66406-2.6992 1-4.25 1-2.7734 0-4.8828-0.84766-6.3281-2.5469-1.4375-1.6953-2.1562-4.1602-2.1562-7.3906z"/>
  </symbol>
  <symbol id="i" overflow="visible">
   <path d="m3.6719-33.234h7.6562v33.234h-7.6562z"/>
  </symbol>
 </defs>
 <g>
  <path d="m593.95 385-15.488-2.3633 9.3633-12.602v0.003906c2.2305-3.0664 1.8945-7.2969-0.78516-9.9766l-9.5391-10.062v-269.68c0-2.043-0.8125-4-2.2539-5.4453-1.4453-1.4414-3.4023-2.2539-5.4453-2.2539h-466.99c-2.0508-0.023438-4.0234 0.78125-5.4727 2.2305-1.4492 1.4492-2.25 3.4219-2.2266 5.4688v369.95c-0.023437 2.0508 0.77734 4.0234 2.2266 5.4727 1.4492 1.4492 3.4219 2.2539 5.4727 2.2305h362.77l11.551 11.551v-0.003906c2.6797 2.6836 6.9102 3.0156 9.9766 0.78906l12.602-9.3633 2.3633 15.488h-0.003906c0.52344 3.7578 3.7344 6.5547 7.5273 6.5625h26.25c3.7969-0.039062 7.0117-2.8125 7.6094-6.5625l2.2734-15.488 12.602 9.3633c3.1484 2.4922 7.6797 2.1484 10.414-0.78906l18.637-18.637c2.6836-2.6758 3.0156-6.9102 0.78906-9.9727l-9.7148-12.164 15.488-2.2734c3.7695-0.56641 6.5625-3.8008 6.5625-7.6133v-26.25c0.039062-3.8281-2.7734-7.0859-6.5625-7.6133zm-32.113-296.62v29.664h-451.41v-30.102zm-451.41 44.539h451.41v205.97c-1.2383 0.16406-2.4141 0.64844-3.4102 1.4023l-12.602 9.7109-2.2734-15.488c-0.60156-3.7344-3.8281-6.4805-7.6133-6.4727h-26.25c-3.7773-0.039062-6.9961 2.7305-7.5234 6.4727l-2.4531 15.488-12.602-9.2734h0.003906c-3.0469-2.2539-7.2734-1.957-9.9766 0.69922l-18.637 18.199c-2.6523 2.6992-2.9492 6.9297-0.69922 9.9766l9.2734 12.602-15.488 2.7969c-3.7383 0.52734-6.5117 3.7461-6.4727 7.5234v26.25c-0.042969 3.8008 2.7188 7.0469 6.4727 7.6133l15.488 2.2734-9.2734 12.602c-0.38672 0.54688-0.71094 1.1328-0.96484 1.75h-346.41zm474.77 278.95-14 2.1016v-0.003906c-2.8281 0.47656-5.1758 2.457-6.125 5.1641-0.68359 2.1328-1.5312 4.2109-2.5352 6.2109-1.0703 2.3555-0.875 5.0898 0.52344 7.2656l8.75 11.375-9.2734 9.2734-11.375-8.75c-2.3359-1.6719-5.4023-1.9102-7.9648-0.61328-2.0195 1.0312-4.1289 1.8828-6.3008 2.5391-2.7305 0.96094-4.7148 3.3477-5.1602 6.2109l-2.1016 13.914h-13.387l-2.1016-13.914c-0.44141-2.8906-2.4688-5.293-5.25-6.2109-2.1484-0.64062-4.2266-1.4922-6.2109-2.5391-2.5938-1.2891-5.6836-1.0547-8.0508 0.61328l-11.289 8.75-9.1875-8.75 8.75-11.375h0.003906c1.7383-2.3008 2.0117-5.3945 0.69922-7.9609-1.0547-2.0234-1.9336-4.1289-2.625-6.3008-0.89844-2.7422-3.2695-4.7422-6.125-5.1641l-13.914-2.1016v-13.125l13.914-2.1016v0.003906c2.875-0.43359 5.2539-2.4727 6.125-5.25 0.70703-2.1367 1.5859-4.2148 2.625-6.2109 1.3047-2.6016 1.0352-5.7148-0.69922-8.0508l-8.75-11.289 9.3633-9.3633 11.289 8.75h-0.003906c2.3359 1.7383 5.4492 2.0078 8.0508 0.70312 1.9961-1.0391 4.0742-1.918 6.2109-2.625 2.7773-0.87109 4.8164-3.25 5.25-6.125l1.9258-14h13.125l2.1016 13.914v-0.003906c0.41797 2.8555 2.418 5.2266 5.1602 6.125 2.1602 0.72656 4.2656 1.6016 6.3008 2.625 2.6602 1.4648 5.9375 1.1875 8.3125-0.69922l11.375-8.75 1.75 1.8359 7.5234 7.5234-8.75 11.289c-1.668 2.3672-1.9023 5.4609-0.60938 8.0508 0.97266 2.0156 1.8203 4.0938 2.5352 6.2148 0.89062 2.7617 3.2578 4.793 6.125 5.25l14 2.1016zm-62.387-40.602c-9.0312-0.023438-17.703 3.5469-24.105 9.918-6.3984 6.375-10.004 15.031-10.02 24.062s3.5586 17.699 9.9375 24.094c6.3789 6.3945 15.039 9.9922 24.07 10 9.0312 0.007812 17.699-3.5742 24.086-9.957 6.3906-6.3828 9.9805-15.047 9.9805-24.078-0.023438-9.0078-3.6055-17.637-9.9648-24.012s-14.98-9.9805-23.984-10.027zm0 52.5c-4.9766 0.023437-9.7578-1.9336-13.285-5.4414-3.5312-3.5078-5.5195-8.2773-5.5273-13.254-0.007812-4.9766 1.9648-9.75 5.4844-13.27s8.293-5.4922 13.27-5.4844c4.9766 0.007812 9.7461 1.9961 13.254 5.5273 3.5078 3.5273 5.4648 8.3086 5.4414 13.285 0.046875 4.9727-1.8945 9.7578-5.3945 13.293-3.5 3.5312-8.2695 5.5195-13.242 5.5195zm-186.73-150.5h186.73c2.0195 0 3.957-0.80078 5.3828-2.2305 1.4258-1.4258 2.2305-3.3633 2.2305-5.3828v-93.273c0.023438-2.0352-0.76953-3.9922-2.1992-5.4414-1.4297-1.4453-3.3789-2.2578-5.4141-2.2578h-186.73c-2.0312 0-3.9805 0.8125-5.4141 2.2578-1.4297 1.4492-2.2188 3.4062-2.1953 5.4414v93.273c0 2.0195 0.80078 3.957 2.2266 5.3828 1.4297 1.4297 3.3672 2.2305 5.3828 2.2305zm7.6992-93.273h171.33v77.961h-171.32zm-201.95 132.74c-0.023438-2.0352 0.76953-3.9961 2.1992-5.4414 1.4297-1.4453 3.3789-2.2617 5.4141-2.2617h46.637c2.1758-0.23047 4.3438 0.46875 5.9688 1.9297s2.5508 3.543 2.5508 5.7266c0 2.1875-0.92578 4.2695-2.5508 5.7305-1.625 1.457-3.793 2.1602-5.9688 1.9258h-46.637c-4.2031 0-7.6133-3.4062-7.6133-7.6094zm295.31 0c-0.046876 4.2188-3.4805 7.6094-7.6992 7.6094h-186.64c-2.1719 0.23437-4.3398-0.46875-5.9648-1.9258-1.625-1.4609-2.5547-3.543-2.5547-5.7305 0-2.1836 0.92969-4.2656 2.5547-5.7266s3.793-2.1602 5.9648-1.9297h186.64c2.125-0.070313 4.1875 0.73047 5.7109 2.2188 1.5195 1.4883 2.3633 3.5312 2.3398 5.6562zm-287.7 39.199h140c2.1719-0.23438 4.3438 0.46875 5.9688 1.9297 1.625 1.457 2.5508 3.5391 2.5508 5.7266 0 2.1836-0.92578 4.2656-2.5508 5.7266-1.625 1.4609-3.7969 2.1602-5.9688 1.9297h-140c-3.9141-0.41797-6.8789-3.7227-6.8789-7.6562 0-3.9375 2.9648-7.2383 6.8789-7.6562zm287.44 52.5c0 4.2031-3.4062 7.6133-7.6133 7.6133h-280c-3.9102-0.42187-6.8789-3.7227-6.8789-7.6562 0-3.9375 2.9688-7.2383 6.8789-7.6562h280c2.0664-0.003906 4.043 0.83594 5.4805 2.3203 1.4336 1.4844 2.2031 3.4883 2.1328 5.5547zm0-45.062c0 4.2188-3.3945 7.6523-7.6133 7.6992h-93.188c-3.9102-0.41797-6.8789-3.7227-6.8789-7.6562s2.9688-7.2383 6.8789-7.6562h93.188c2.0508 0 4.0156 0.82422 5.4453 2.293 1.4336 1.4648 2.2148 3.4453 2.168 5.4961zm-295.05-140.61c-0.023438-1.9766 0.76953-3.875 2.1875-5.25l23.363-23.363c3.0586-2.5742 7.5781-2.3828 10.406 0.44531s3.0195 7.3477 0.44531 10.406l-17.5 17.5 17.5 17.5c2.1836 2.1992 2.8359 5.5 1.6523 8.3672-1.1875 2.8672-3.9766 4.7422-7.0781 4.7578-2.0391 0-3.9961-0.82031-5.4258-2.2773l-23.363-22.836c-1.418-1.375-2.2109-3.2734-2.1875-5.25zm95.551 17.5 17.938-17.5-17.938-17.5c-2.5742-3.0586-2.3828-7.5781 0.44531-10.406s7.3477-3.0195 10.406-0.44531l23.012 22.84c2.9727 2.9727 2.9727 7.7891 0 10.762l-23.273 23.363c-1.4531 1.4219-3.3945 2.2344-5.4258 2.2734-2.0391 0-3.9961-0.82031-5.4258-2.2734-1.4805-1.4883-2.2891-3.5156-2.2383-5.6133s0.95312-4.082 2.5-5.5zm-47.25 11.023 20.738-62.648c1.4609-3.8516 5.6953-5.8672 9.6055-4.582 3.9141 1.2891 6.1172 5.4297 5.0078 9.3945l-20.824 62.648c-1.0273 3.1406-3.9609 5.2617-7.2656 5.25-0.83594 0.019531-1.668-0.12891-2.4492-0.4375-3.8516-1.3281-5.9727-5.457-4.8125-9.3594z"/>
 </g>
</svg>
