<?xml version="1.0" encoding="iso-8859-1"?>
<!-- Uploaded to: SVG Repo, www.svgrepo.com, Generator: SVG Repo Mixer Tools -->
<svg fill="#000000" version="1.1" id="Layer_1" xmlns="http://www.w3.org/2000/svg" xmlns:xlink="http://www.w3.org/1999/xlink" 
	 viewBox="0 0 496 496" xml:space="preserve">
<g>
	<g>
		<g>
			<path d="M464,64V32h-32V0H0v432h32v32h32v32h432V64H464z M32,416H16V16h400v16H32V416z M64,448H48V48h400v16H64V448z M480,480H80
				V144h400V480z M480,128H80V80h400V128z"/>
			<rect x="96" y="96" width="16" height="16"/>
			<rect x="128" y="96" width="16" height="16"/>
			<rect x="160" y="96" width="16" height="16"/>
			<path d="M128,352h30.504c2,6.096,4.432,11.992,7.28,17.64l-21.552,21.552L200.8,447.76l21.552-21.552
				c5.648,2.84,11.552,5.28,17.648,7.28V464h80v-30.504c6.096-2,12-4.44,17.648-7.28l21.552,21.552l56.568-56.568l-21.552-21.552
				c2.848-5.648,5.28-11.544,7.28-17.64H432v-32h32v-16H96V320h32V352z M335.36,320c-3.904,27.088-27.208,48-55.36,48
				s-51.456-20.912-55.36-48H335.36z M144,320h64.472c4,35.944,34.536,64,71.528,64s67.536-28.056,71.528-64H416v16h-26.536
				l-1.624,5.864c-2.464,8.928-5.976,17.432-10.44,25.28l-3.008,5.296l18.744,18.752l-33.944,33.944l-18.744-18.752l-5.296,3.016
				c-7.848,4.456-16.36,7.968-25.288,10.44L304,421.472V448h-48v-26.528l-5.864-1.624c-8.928-2.472-17.44-5.984-25.288-10.44
				l-5.296-3.016l-18.744,18.752L166.864,391.2l18.744-18.752l-3.008-5.296c-4.464-7.848-7.976-16.352-10.44-25.28L170.536,336H144
				V320z"/>
			<polygon points="221.656,274.344 171.312,224 221.656,173.656 210.344,162.344 148.688,224 210.344,285.656 			"/>
			<polygon points="349.656,285.656 411.312,224 349.656,162.344 338.344,173.656 388.688,224 338.344,274.344 			"/>
			<rect x="272.003" y="155.174" transform="matrix(0.8139 0.581 -0.581 0.8139 182.2489 -120.9977)" width="16" height="137.64"/>
		</g>
	</g>
</g>
</svg>